<svg height="448pt" viewBox="-112 0 448 448" width="448pt" xmlns="http://www.w3.org/2000/svg"><path d="m80 392c0-30.871094-17.945312-56-40-56s-40 25.128906-40 56 17.945312 56 40 56 40-25.128906 40-56zm-64 0c0-22.808594 10.320312-40 24-40s24 17.191406 24 40-10.320312 40-24 40-24-17.191406-24-40zm0 0"/><path d="m184 336c-22.054688 0-40 25.128906-40 56s17.945312 56 40 56 40-25.128906 40-56-17.945312-56-40-56zm0 96c-13.679688 0-24-17.191406-24-40s10.320312-40 24-40 24 17.191406 24 40-10.320312 40-24 40zm0 0"/><path d="m110.96875 0-31.046875 225.097656c-.058594.425782-.148437.84375-.273437 1.253906l-29.25 94.953126c2.082031.492187 4.128906 1.132812 6.121093 1.910156.105469-.125.128907-.292969.242188-.414063l86.824219-101.28125-30.554688-221.519531zm17.03125 208c0 8.835938-7.164062 16-16 16s-16-7.164062-16-16 7.164062-16 16-16 16 7.164062 16 16zm0 0"/><path d="m173.601562 321.304688-24.976562-81.082032-28 32.6875 41.503906 52.800782c3.613282-1.96875 7.46875-3.449219 11.472656-4.40625zm0 0"/></svg>